<?xml version="1.0" standalone="no"?>
<!DOCTYPE svg PUBLIC "-//W3C//DTD SVG 1.1//EN" "http://www.w3.org/Graphics/SVG/1.1/DTD/svg11.dtd" >
<svg xmlns="http://www.w3.org/2000/svg" xmlns:svg="http://www.w3.org/2000/svg" xmlns:xlink="http://www.w3.org/1999/xlink" viewBox="0 0 1024 1024"><path d="M599.5 109.5L605.5 100.5L607.5 102.5L631.5 82.5L690.5 130.5L663.5 146.5L638.5 157.5L616.5 178.5L584.5 204.5L548.5 232.5L499.5 264.5H771.5L803.5 237.5L862.5 285.5L835.5 307.5V443.5L771.5 475.5V432.5H565.5L587.5 483.5L615.5 539.5L646.5 592.5L679.5 641.5L680.5 642.5L794.5 546.5L844.5 500.5L859.5 484.5L901.5 533.5L903.5 553.5L883.5 546.5L823.5 586.5L778.5 612.5L727.5 638.5L700.5 650.5L690.5 654.5L716.5 686.5L757.5 729.5L800.5 767.5L848.5 803.5L899.5 835.5L981.5 879.5L921.5 927.5L863.5 892.5L810.5 854.5L762.5 812.5L717.5 766.5L677.5 718.5L642.5 666.5L612.5 611.5L586.5 552.5L566.5 491.5L554.5 432.5H548.5L509.5 464.5L479.5 485.5L445.5 505.5L441.5 508.5L475.5 539.5L515.5 581.5L548.5 624.5L574.5 667.5L595.5 710.5L608.5 753.5L615.5 796.5V839.5L607.5 882.5L592.5 924.5L585.5 936.5L578.5 946.5L569.5 957.5L559.5 965.5L549.5 973.5L537.5 979.5L525.5 984.5L512.5 987.5L499.5 989.5L486.5 990.5V958.5L378.5 941.5V925.5H486.5L499.5 924.5L505.5 923.5L515.5 918.5L519.5 915.5L523.5 911.5L527.5 907.5L530.5 902.5L549.5 864.5L557.5 831.5L561.5 798.5L559.5 762.5L554.5 737.5L504.5 772.5L458.5 799.5L410.5 825.5L360.5 848.5L306.5 870.5L251.5 890.5L192.5 907.5L131.5 922.5L67.5 934.5L65.5 924.5L183.5 880.5L291.5 833.5L340.5 808.5L430.5 753.5L471.5 724.5L509.5 694.5L532.5 673.5L517.5 643.5L502.5 616.5L444.5 652.5L364.5 693.5L320.5 711.5L274.5 728.5L226.5 744.5L176.5 758.5L123.5 771.5L67.5 781.5L65.5 772.5L214.5 711.5L301.5 669.5L379.5 626.5L414.5 603.5L446.5 580.5L467.5 563.5L429.5 514.5L365.5 544.5L268.5 581.5L213.5 598.5L153.5 614.5L89.5 629.5L86.5 620.5L255.5 548.5L345.5 503.5L384.5 481.5L417.5 459.5L446.5 438.5L453.5 432.5H259.5V469.5L195.5 502.5V292.5L176.5 308.5L135.5 338.5L93.5 366.5L48.5 392.5L42.5 384.5L117.5 315.5L185.5 247.5L195.5 236.5V231.5L198.5 233.5L216.5 214.5L244.5 179.5L271.5 144.5L295.5 109.5L317.5 74.5L336.5 38.5L340.5 33.5L393.5 70.5L401.5 87.5L381.5 88.5L368.5 107.5L367.5 109.5ZM259.5 285.5V410.5H475.5V409.5H483.5V285.5ZM548.5 285.5V409.5H561.5V410.5H771.5V285.5ZM351.5 130.5L313.5 178.5L282.5 212.5L249.5 245.5L239.5 254.5L259.5 264.5H479.5L540.5 191.5L586.5 130.5Z" fill="black"></path></svg>